<?xml version="1.0" encoding="utf-8"?>
<!-- Generator: Adobe Illustrator 16.0.0, SVG Export Plug-In . SVG Version: 6.00 Build 0)  -->
<!DOCTYPE svg PUBLIC "-//W3C//DTD SVG 1.1//EN" "http://www.w3.org/Graphics/SVG/1.1/DTD/svg11.dtd">
<svg version="1.1" id="US_UK_Download_on_the" xmlns="http://www.w3.org/2000/svg" xmlns:xlink="http://www.w3.org/1999/xlink"
	 x="0px" y="0px" width="135px" height="40px" viewBox="0 0 135 40" enable-background="new 0 0 135 40" xml:space="preserve">
<g>
	<path fill="#A6A6A6" d="M239.177,73.481H8.688C3.898,73.481,0,69.572,0,64.788V8.682C0,3.895,3.898,0,8.688,0h230.489
		C243.964,0,248,3.895,248,8.682v56.106C248,69.572,243.964,73.481,239.177,73.481L239.177,73.481z"/>
	<path display="none" d="M246.223,64.788c0,3.888-3.148,7.036-7.044,7.036H8.688c-3.893,0-7.052-3.148-7.052-7.036V8.68
		c0-3.886,3.159-7.045,7.052-7.045h230.489c3.897,0,7.044,3.159,7.044,7.045L246.223,64.788L246.223,64.788z"/>
	<g>
		<g>
			<path fill="#FFFFFF" d="M55.346,36.345c-0.053-5.922,4.848-8.802,5.072-8.937c-2.776-4.047-7.078-4.6-8.59-4.644
				c-3.613-0.38-7.119,2.162-8.959,2.162c-1.877,0-4.712-2.125-7.767-2.063c-3.932,0.062-7.609,2.337-9.625,5.872
				c-4.163,7.206-1.059,17.797,2.929,23.622c1.995,2.854,4.326,6.038,7.378,5.926c2.985-0.122,4.1-1.902,7.703-1.902
				c3.57,0,4.617,1.902,7.728,1.83c3.204-0.05,5.222-2.865,7.146-5.744c2.305-3.269,3.231-6.49,3.268-6.655
				C61.553,45.786,55.407,43.439,55.346,36.345z"/>
			<path fill="#FFFFFF" d="M49.468,18.933c1.604-2.008,2.704-4.74,2.398-7.512c-2.324,0.103-5.229,1.607-6.903,3.572
				c-1.481,1.73-2.803,4.567-2.461,7.234C45.112,22.421,47.792,20.909,49.468,18.933z"/>
		</g>
	</g>
	<g>
		<path fill="#FFFFFF" d="M98.548,57.874h-4.172l-2.285-7.182h-7.943l-2.177,7.182h-4.062l7.869-24.447h4.86L98.548,57.874z
			 M91.401,47.681l-2.066-6.383c-0.218-0.653-0.628-2.189-1.232-4.606h-0.073c-0.241,1.04-0.628,2.575-1.161,4.606l-2.03,6.383
			H91.401z"/>
		<path fill="#FFFFFF" d="M118.787,48.843c0,2.998-0.811,5.368-2.432,7.108c-1.451,1.548-3.253,2.321-5.404,2.321
			c-2.322,0-3.989-0.833-5.006-2.501h-0.073v9.285h-3.917V46.048c0-1.884-0.049-3.817-0.145-5.802h3.444l0.219,2.795h0.073
			c1.307-2.105,3.289-3.157,5.948-3.157c2.08,0,3.815,0.821,5.204,2.465C118.093,43.996,118.787,46.159,118.787,48.843z
			 M114.797,48.986c0-1.715-0.387-3.131-1.161-4.244c-0.848-1.159-1.984-1.74-3.41-1.74c-0.966,0-1.844,0.322-2.629,0.961
			c-0.786,0.643-1.301,1.482-1.541,2.522c-0.121,0.484-0.182,0.881-0.182,1.193v2.94c0,1.28,0.394,2.362,1.179,3.247
			c0.787,0.883,1.808,1.324,3.064,1.324c1.476,0,2.624-0.571,3.444-1.705C114.385,52.349,114.797,50.849,114.797,48.986z"/>
		<path fill="#FFFFFF" d="M139.062,48.843c0,2.998-0.812,5.368-2.433,7.108c-1.45,1.548-3.251,2.321-5.403,2.321
			c-2.322,0-3.99-0.833-5.004-2.501h-0.073v9.285h-3.916V46.048c0-1.884-0.05-3.817-0.146-5.802h3.444l0.219,2.795h0.073
			c1.305-2.105,3.287-3.157,5.947-3.157c2.077,0,3.814,0.821,5.206,2.465C138.366,43.996,139.062,46.159,139.062,48.843z
			 M135.072,48.986c0-1.715-0.388-3.131-1.162-4.244c-0.847-1.159-1.98-1.74-3.409-1.74c-0.969,0-1.844,0.322-2.63,0.961
			c-0.785,0.643-1.299,1.482-1.539,2.522c-0.12,0.484-0.183,0.881-0.183,1.193v2.94c0,1.28,0.393,2.362,1.177,3.247
			c0.785,0.881,1.807,1.324,3.067,1.324c1.475,0,2.623-0.571,3.444-1.705C134.66,52.349,135.072,50.849,135.072,48.986z"/>
		<path fill="#FFFFFF" d="M161.731,51.018c0,2.081-0.722,3.772-2.171,5.078c-1.594,1.427-3.811,2.141-6.659,2.141
			c-2.632,0-4.74-0.508-6.337-1.523l0.908-3.265c1.719,1.04,3.605,1.562,5.661,1.562c1.476,0,2.623-0.334,3.448-1.001
			c0.822-0.664,1.23-1.558,1.23-2.67c0-0.992-0.337-1.828-1.015-2.506c-0.675-0.678-1.802-1.308-3.373-1.889
			c-4.28-1.597-6.419-3.937-6.419-7.012c0-2.009,0.75-3.657,2.25-4.94c1.496-1.283,3.491-1.925,5.984-1.925
			c2.225,0,4.072,0.388,5.547,1.161l-0.978,3.193c-1.378-0.75-2.937-1.125-4.681-1.125c-1.378,0-2.454,0.34-3.226,1.016
			c-0.651,0.604-0.978,1.342-0.978,2.215c0,0.966,0.371,1.766,1.121,2.394c0.653,0.579,1.837,1.209,3.558,1.887
			c2.104,0.848,3.647,1.838,4.641,2.972C161.236,47.912,161.731,49.327,161.731,51.018z"/>
		<path fill="#FFFFFF" d="M174.68,43.185h-4.316v8.56c0,2.176,0.761,3.263,2.286,3.263c0.699,0,1.28-0.059,1.74-0.181l0.107,2.975
			c-0.771,0.288-1.787,0.434-3.046,0.434c-1.547,0-2.756-0.472-3.628-1.415c-0.87-0.944-1.306-2.526-1.306-4.753v-8.886h-2.573
			v-2.938h2.573v-3.228l3.846-1.161v4.389h4.316V43.185z"/>
		<path fill="#FFFFFF" d="M194.159,48.915c0,2.709-0.775,4.933-2.323,6.673c-1.622,1.791-3.774,2.685-6.458,2.685
			c-2.587,0-4.646-0.857-6.183-2.573c-1.535-1.717-2.304-3.882-2.304-6.492c0-2.732,0.791-4.969,2.376-6.709
			c1.58-1.742,3.715-2.612,6.398-2.612c2.587,0,4.668,0.859,6.24,2.576C193.409,44.128,194.159,46.277,194.159,48.915z
			 M190.094,49.04c0-1.625-0.346-3.019-1.05-4.182c-0.821-1.408-1.996-2.107-3.516-2.107c-1.573,0-2.771,0.703-3.592,2.107
			c-0.705,1.164-1.051,2.582-1.051,4.257c0,1.626,0.346,3.02,1.051,4.181c0.847,1.406,2.029,2.109,3.558,2.109
			c1.494,0,2.668-0.718,3.517-2.146C189.731,52.076,190.094,50.666,190.094,49.04z"/>
		<path fill="#FFFFFF" d="M206.889,43.69c-0.387-0.071-0.8-0.107-1.233-0.107c-1.378,0-2.443,0.519-3.193,1.561
			c-0.653,0.919-0.979,2.079-0.979,3.48v9.25h-3.915l0.036-12.077c0-2.031-0.049-3.882-0.147-5.549h3.412l0.144,3.373h0.108
			c0.414-1.159,1.065-2.094,1.959-2.794c0.871-0.63,1.815-0.943,2.83-0.943c0.362,0,0.689,0.025,0.979,0.071V43.69z"/>
		<path fill="#FFFFFF" d="M224.405,48.226c0,0.702-0.046,1.294-0.144,1.776h-11.75c0.047,1.742,0.613,3.075,1.704,3.993
			c0.99,0.82,2.271,1.23,3.845,1.23c1.738,0,3.327-0.276,4.754-0.832l0.613,2.718c-1.668,0.727-3.637,1.089-5.909,1.089
			c-2.734,0-4.88-0.804-6.442-2.411c-1.557-1.607-2.338-3.768-2.338-6.475c0-2.656,0.727-4.87,2.18-6.636
			c1.521-1.886,3.576-2.827,6.163-2.827c2.54,0,4.465,0.941,5.771,2.827C223.886,44.175,224.405,46.026,224.405,48.226z
			 M220.671,47.21c0.024-1.162-0.23-2.163-0.761-3.01c-0.679-1.091-1.719-1.635-3.122-1.635c-1.28,0-2.321,0.531-3.118,1.597
			c-0.65,0.847-1.038,1.864-1.158,3.047L220.671,47.21L220.671,47.21z"/>
	</g>
	<g>
		<g>
			<path fill="#FFFFFF" d="M90.106,18.387c0,2.162-0.648,3.79-1.943,4.883c-1.2,1.009-2.904,1.515-5.112,1.515
				c-1.096,0-2.032-0.049-2.816-0.144V12.826c1.023-0.165,2.126-0.25,3.315-0.25c2.104,0,3.688,0.457,4.758,1.372
				C89.506,14.983,90.106,16.461,90.106,18.387z M88.076,18.44c0-1.402-0.37-2.477-1.113-3.226
				c-0.741-0.748-1.825-1.123-3.253-1.123c-0.606,0-1.122,0.04-1.55,0.125v8.981c0.236,0.036,0.67,0.054,1.301,0.054
				c1.473,0,2.609-0.41,3.411-1.229C87.673,21.203,88.076,20.009,88.076,18.44z"/>
			<path fill="#FFFFFF" d="M100.87,20.275c0,1.332-0.38,2.423-1.141,3.279c-0.798,0.879-1.854,1.318-3.173,1.318
				c-1.271,0-2.284-0.42-3.038-1.266c-0.754-0.843-1.13-1.906-1.13-3.188c0-1.342,0.387-2.441,1.166-3.296
				c0.779-0.854,1.826-1.282,3.146-1.282c1.271,0,2.293,0.421,3.065,1.264C100.501,17.924,100.87,18.982,100.87,20.275z
				 M98.873,20.337c0-0.799-0.173-1.483-0.517-2.055c-0.404-0.69-0.979-1.036-1.727-1.036c-0.773,0-1.361,0.345-1.765,1.036
				c-0.346,0.572-0.517,1.268-0.517,2.09c0,0.799,0.173,1.485,0.517,2.056c0.417,0.69,0.997,1.036,1.746,1.036
				c0.735,0,1.312-0.352,1.728-1.055C98.695,21.827,98.873,21.137,98.873,20.337z"/>
			<path fill="#FFFFFF" d="M115.302,16.017l-2.71,8.66h-1.764l-1.122-3.761c-0.285-0.938-0.517-1.871-0.696-2.798h-0.035
				c-0.167,0.952-0.398,1.884-0.696,2.798l-1.192,3.761h-1.784l-2.547-8.66h1.979l0.979,4.117c0.237,0.975,0.432,1.901,0.589,2.78
				h0.034c0.144-0.725,0.38-1.646,0.715-2.762l1.229-4.133h1.569l1.178,4.045c0.284,0.987,0.516,1.936,0.694,2.851h0.053
				c0.131-0.891,0.327-1.84,0.588-2.851l1.051-4.045h1.891V16.017z"/>
			<path fill="#FFFFFF" d="M125.282,24.677h-1.926v-4.96c0-1.528-0.58-2.293-1.744-2.293c-0.571,0-1.032,0.21-1.392,0.631
				c-0.354,0.42-0.534,0.917-0.534,1.483v5.138h-1.925v-6.185c0-0.76-0.024-1.585-0.07-2.478h1.691l0.091,1.354h0.053
				c0.225-0.421,0.56-0.768,0.998-1.046c0.521-0.323,1.105-0.486,1.745-0.486c0.809,0,1.48,0.261,2.015,0.784
				c0.667,0.641,0.998,1.598,0.998,2.869V24.677z"/>
			<path fill="#FFFFFF" d="M130.591,24.677h-1.923V12.044h1.923V24.677z"/>
			<path fill="#FFFFFF" d="M141.926,20.275c0,1.332-0.381,2.423-1.142,3.279c-0.796,0.879-1.854,1.318-3.172,1.318
				c-1.273,0-2.285-0.42-3.039-1.266c-0.753-0.843-1.13-1.906-1.13-3.188c0-1.342,0.388-2.441,1.166-3.296
				c0.78-0.854,1.826-1.282,3.144-1.282c1.273,0,2.292,0.421,3.069,1.264C141.556,17.924,141.926,18.982,141.926,20.275z
				 M139.927,20.337c0-0.799-0.172-1.483-0.517-2.055c-0.401-0.69-0.979-1.036-1.724-1.036c-0.777,0-1.363,0.345-1.768,1.036
				c-0.344,0.572-0.515,1.268-0.515,2.09c0,0.799,0.172,1.485,0.515,2.056c0.418,0.69,1,1.036,1.748,1.036
				c0.735,0,1.31-0.352,1.726-1.055C139.751,21.827,139.927,21.137,139.927,20.337z"/>
			<path fill="#FFFFFF" d="M151.243,24.677h-1.729l-0.144-0.997h-0.052c-0.592,0.796-1.436,1.193-2.531,1.193
				c-0.816,0-1.479-0.263-1.976-0.784c-0.451-0.474-0.678-1.063-0.678-1.764c0-1.058,0.441-1.864,1.329-2.423
				c0.885-0.558,2.13-0.833,3.733-0.819v-0.163c0-1.14-0.598-1.709-1.799-1.709c-0.854,0-1.607,0.214-2.257,0.641l-0.392-1.263
				c0.804-0.499,1.798-0.748,2.971-0.748c2.265,0,3.398,1.194,3.398,3.583v3.189C151.118,23.478,151.161,24.167,151.243,24.677z
				 M149.245,21.701v-1.336c-2.124-0.037-3.187,0.545-3.187,1.745c0,0.452,0.122,0.79,0.37,1.016
				c0.247,0.227,0.562,0.339,0.939,0.339c0.424,0,0.818-0.134,1.177-0.4c0.362-0.269,0.585-0.608,0.668-1.025
				C149.234,21.945,149.245,21.831,149.245,21.701z"/>
			<path fill="#FFFFFF" d="M162.183,24.677h-1.707l-0.09-1.391h-0.054c-0.546,1.059-1.475,1.587-2.781,1.587
				c-1.044,0-1.912-0.409-2.601-1.229c-0.689-0.819-1.034-1.883-1.034-3.189c0-1.401,0.374-2.537,1.123-3.403
				c0.726-0.809,1.615-1.213,2.674-1.213c1.162,0,1.975,0.391,2.439,1.176h0.036v-4.971h1.927v10.3
				C162.115,23.188,162.137,23.964,162.183,24.677z M160.188,21.024v-1.443c0-0.25-0.019-0.452-0.054-0.606
				c-0.108-0.463-0.341-0.852-0.696-1.167c-0.359-0.314-0.789-0.472-1.288-0.472c-0.718,0-1.281,0.285-1.693,0.856
				c-0.409,0.571-0.617,1.301-0.617,2.192c0,0.856,0.197,1.55,0.592,2.084c0.416,0.569,0.979,0.854,1.683,0.854
				c0.632,0,1.138-0.236,1.521-0.712C160.005,22.171,160.188,21.643,160.188,21.024z"/>
			<path fill="#FFFFFF" d="M178.648,20.275c0,1.332-0.381,2.423-1.142,3.279c-0.796,0.879-1.851,1.318-3.171,1.318
				c-1.271,0-2.282-0.42-3.039-1.266c-0.754-0.843-1.131-1.906-1.131-3.188c0-1.342,0.388-2.441,1.166-3.296
				c0.779-0.854,1.826-1.282,3.147-1.282c1.27,0,2.292,0.421,3.063,1.264C178.278,17.924,178.648,18.982,178.648,20.275z
				 M176.653,20.337c0-0.799-0.172-1.483-0.517-2.055c-0.405-0.69-0.979-1.036-1.729-1.036c-0.771,0-1.358,0.345-1.766,1.036
				c-0.344,0.572-0.515,1.268-0.515,2.09c0,0.799,0.173,1.485,0.515,2.056c0.418,0.69,0.998,1.036,1.748,1.036
				c0.735,0,1.312-0.352,1.729-1.055C176.474,21.827,176.653,21.137,176.653,20.337z"/>
			<path fill="#FFFFFF" d="M189,24.677h-1.924v-4.96c0-1.528-0.581-2.293-1.747-2.293c-0.57,0-1.031,0.21-1.389,0.631
				c-0.355,0.42-0.534,0.917-0.534,1.483v5.138h-1.927v-6.185c0-0.76-0.021-1.585-0.068-2.478h1.689l0.09,1.354h0.054
				c0.227-0.421,0.56-0.768,0.998-1.046c0.523-0.323,1.104-0.486,1.747-0.486c0.808,0,1.479,0.261,2.013,0.784
				c0.668,0.641,0.998,1.598,0.998,2.869V24.677z"/>
			<path fill="#FFFFFF" d="M201.956,17.459h-2.119v4.207c0,1.069,0.375,1.604,1.121,1.604c0.347,0,0.632-0.029,0.857-0.09
				l0.051,1.461c-0.381,0.144-0.879,0.215-1.495,0.215c-0.76,0-1.353-0.232-1.781-0.695s-0.642-1.241-0.642-2.335v-4.366h-1.267
				v-1.442h1.267V14.43l1.887-0.569v2.154h2.121V17.459L201.956,17.459z"/>
			<path fill="#FFFFFF" d="M212.149,24.677h-1.927v-4.923c0-1.552-0.582-2.33-1.744-2.33c-0.894,0-1.503,0.451-1.837,1.35
				c-0.058,0.19-0.09,0.422-0.09,0.693v5.208h-1.923V12.044h1.923v5.219h0.036c0.606-0.95,1.475-1.424,2.602-1.424
				c0.796,0,1.456,0.261,1.98,0.784c0.652,0.652,0.979,1.623,0.979,2.904V24.677z"/>
			<path fill="#FFFFFF" d="M222.662,19.938c0,0.345-0.025,0.636-0.072,0.873h-5.772c0.024,0.855,0.301,1.508,0.836,1.96
				c0.487,0.404,1.117,0.606,1.889,0.606c0.855,0,1.635-0.137,2.334-0.41l0.302,1.337c-0.82,0.356-1.787,0.535-2.906,0.535
				c-1.341,0-2.397-0.395-3.161-1.186c-0.768-0.79-1.148-1.85-1.148-3.18c0-1.306,0.355-2.394,1.069-3.26
				c0.746-0.926,1.755-1.389,3.028-1.389c1.245,0,2.192,0.463,2.831,1.389C222.407,17.948,222.662,18.857,222.662,19.938z
				 M220.825,19.439c0.014-0.571-0.111-1.063-0.374-1.479c-0.333-0.535-0.843-0.803-1.531-0.803c-0.628,0-1.142,0.261-1.532,0.785
				c-0.319,0.417-0.51,0.915-0.57,1.497H220.825z"/>
		</g>
	</g>
</g>
</svg>
